<svg id="svg1" xmlns="http://www.w3.org/2000/svg" xmlns:xlink="http://www.w3.org/1999/xlink" width="1200" height="1920" viewBox="0, 0, 400,640"><g id="svgg"><path id="path0" d="M179.000 28.480 C 171.597 29.129,164.663 33.265,159.527 40.095 C 154.709 46.502,153.132 47.019,146.934 44.220 C 143.634 42.730,142.643 42.492,140.856 42.760 C 138.852 43.061,138.032 42.727,127.425 37.290 C 121.211 34.106,115.543 31.500,114.828 31.500 C 110.984 31.500,105.705 35.296,101.042 41.413 C 99.507 43.427,97.575 45.950,96.750 47.020 C 93.672 51.010,87.873 55.352,81.773 58.232 C 74.771 61.539,69.877 60.826,61.250 55.243 C 52.874 49.822,47.993 50.068,41.000 56.261 C 40.313 56.869,38.724 57.956,37.470 58.676 C 34.283 60.504,33.262 61.755,31.824 65.590 C 31.135 67.426,29.394 70.689,27.955 72.840 C 21.527 82.446,21.061 83.292,20.010 87.250 C 19.426 89.450,18.433 92.037,17.802 93.000 C 14.211 98.483,15.260 105.812,21.239 117.000 C 25.712 125.371,26.404 125.990,35.228 129.523 C 39.039 131.049,44.396 134.417,53.440 140.974 C 70.953 153.670,78.598 155.126,96.500 149.178 C 108.813 145.087,110.683 143.609,115.359 134.269 C 126.061 112.891,133.298 114.393,130.268 137.364 C 128.380 151.678,121.283 164.110,109.494 173.755 C 105.709 176.852,101.830 178.504,94.250 180.248 C 88.844 181.492,74.586 185.388,73.911 185.805 C 73.683 185.946,71.978 186.267,70.123 186.518 C 68.268 186.770,64.388 187.310,61.500 187.719 C 58.612 188.128,54.833 188.471,53.100 188.481 C 46.601 188.520,33.500 199.918,33.500 205.534 C 33.500 211.223,36.100 215.494,42.007 219.505 C 45.251 221.708,54.000 230.690,54.000 231.817 C 54.000 232.246,53.070 233.644,51.934 234.923 C 46.677 240.845,47.538 244.417,56.074 252.081 C 66.080 261.066,65.767 260.263,61.069 264.879 C 56.989 268.886,56.230 270.240,55.502 274.799 C 54.343 282.053,53.748 283.882,49.358 293.694 C 48.756 295.039,46.855 297.710,45.132 299.631 C 43.409 301.553,42.000 303.266,42.000 303.440 C 42.000 303.613,41.000 304.541,39.777 305.502 C 36.712 307.912,36.254 309.175,36.963 313.248 C 38.100 319.778,40.773 321.923,52.190 325.468 C 55.902 326.620,60.223 329.241,65.718 333.673 C 67.625 335.211,72.287 338.061,76.079 340.005 C 83.768 343.949,86.470 346.091,86.555 348.309 C 86.794 354.535,85.496 355.737,71.500 362.246 C 61.465 366.914,61.750 366.690,56.590 373.947 C 54.150 377.378,52.252 379.399,49.544 381.447 C 47.506 382.989,45.664 384.587,45.450 385.000 C 45.236 385.413,44.386 387.241,43.560 389.064 C 42.450 391.514,41.035 393.403,38.129 396.314 C 28.308 406.149,33.157 421.609,47.848 427.301 C 50.424 428.299,53.031 429.533,53.641 430.042 L 54.750 430.968 52.375 433.180 C 49.969 435.420,49.834 435.759,49.991 439.144 C 50.054 440.500,49.651 441.709,48.575 443.394 C 45.936 447.528,46.073 450.614,49.036 453.750 L 50.453 455.250 49.438 457.500 C 48.637 459.275,48.393 461.017,48.278 465.750 C 47.962 478.840,47.416 484.607,46.127 488.500 C 44.585 493.159,44.482 496.265,45.797 498.542 C 47.216 501.001,59.431 507.144,65.682 508.542 C 70.581 509.638,71.413 510.018,75.704 513.117 C 80.447 516.542,80.786 517.213,79.549 520.731 C 77.939 525.313,71.157 536.696,65.955 543.549 C 64.369 545.638,61.791 549.458,60.227 552.038 C 56.741 557.786,53.873 561.564,49.138 566.642 C 41.440 574.896,41.535 580.245,49.527 588.688 C 56.951 596.531,60.499 597.632,66.067 593.821 C 70.683 590.662,73.682 589.291,78.682 588.057 C 84.313 586.666,85.937 585.820,91.071 581.599 C 93.369 579.710,98.737 575.607,103.000 572.481 C 107.263 569.356,113.121 564.957,116.020 562.707 C 129.378 552.333,136.558 550.024,141.144 554.625 C 144.387 557.878,151.882 576.945,154.558 588.750 C 159.475 610.439,162.433 613.486,180.750 615.739 C 184.325 616.179,188.713 616.906,190.500 617.355 C 192.818 617.937,196.260 618.189,202.500 618.237 C 209.131 618.287,211.999 618.513,214.342 619.172 C 218.523 620.347,219.952 619.706,225.743 614.055 C 234.944 605.078,242.089 603.000,263.757 603.000 C 274.922 603.000,292.098 601.492,294.381 600.311 C 300.476 597.159,299.960 590.156,292.250 571.392 C 286.867 558.291,284.550 545.359,286.696 540.394 C 288.155 537.018,294.237 531.469,295.573 532.295 C 295.808 532.440,296.000 532.344,296.000 532.080 C 296.000 530.696,305.237 526.774,308.526 526.762 C 314.914 526.738,322.501 532.071,329.172 541.273 C 335.962 550.640,340.186 549.379,348.517 535.500 C 356.291 522.550,357.959 506.273,353.693 485.000 C 353.003 481.563,352.251 475.825,352.021 472.250 C 351.402 462.630,348.672 454.623,342.604 444.627 C 339.065 438.799,337.519 435.353,333.271 423.827 C 329.342 413.165,327.983 410.136,323.255 401.500 C 313.111 382.972,313.037 378.269,322.765 370.457 C 333.805 361.591,339.855 347.692,337.328 337.000 C 336.567 333.780,336.571 333.733,337.780 331.973 C 339.421 329.584,339.324 328.571,337.157 325.425 C 336.144 323.954,334.086 320.950,332.584 318.750 C 325.487 308.352,321.264 294.308,323.774 289.454 C 326.982 283.250,330.671 279.108,339.873 271.379 C 348.092 264.476,349.805 252.119,343.581 244.615 C 337.629 237.439,337.373 231.894,342.727 226.112 C 344.217 224.502,346.328 221.999,347.417 220.549 C 348.506 219.100,350.642 216.804,352.164 215.447 C 359.568 208.849,359.659 204.339,352.589 194.455 C 347.499 187.338,345.775 182.299,344.469 170.717 C 343.701 163.903,343.914 162.983,346.727 160.963 C 350.617 158.170,351.245 155.616,349.240 150.750 C 347.427 146.349,348.120 140.480,350.999 135.849 C 353.287 132.168,352.509 130.969,350.120 134.495 C 347.086 138.973,346.012 147.339,347.937 151.500 C 349.618 155.133,349.380 156.719,346.880 158.529 C 342.579 161.645,342.163 163.714,343.720 174.250 C 345.329 185.145,346.066 187.010,352.660 196.870 C 358.251 205.232,358.129 206.750,351.276 214.000 C 349.327 216.063,346.961 218.762,346.020 220.000 C 345.078 221.238,343.466 222.986,342.438 223.885 C 336.095 229.430,336.222 238.036,342.769 246.251 C 348.326 253.225,346.841 263.163,339.294 269.500 C 329.942 277.354,325.166 282.931,322.636 288.955 C 320.094 295.007,324.307 308.364,332.709 320.894 C 338.273 329.190,338.270 329.184,336.751 330.704 C 335.279 332.175,335.238 332.859,336.307 338.133 C 338.290 347.920,331.896 362.134,322.142 369.623 C 311.769 377.586,311.914 381.183,323.513 403.750 C 327.281 411.079,330.116 417.496,332.904 425.000 C 337.842 438.290,338.841 440.556,341.722 445.010 C 347.701 454.252,350.399 462.098,351.004 472.000 C 351.230 475.712,351.995 481.604,352.702 485.092 C 357.040 506.483,355.487 521.900,347.693 534.813 C 340.572 546.611,337.354 547.573,331.872 539.547 C 322.597 525.968,311.538 521.606,300.713 527.258 C 295.076 530.201,294.794 530.241,294.273 528.164 C 294.088 527.425,292.841 525.510,291.504 523.909 C 290.166 522.308,288.482 519.705,287.760 518.124 C 287.038 516.543,284.646 511.703,282.445 507.368 C 280.243 503.033,278.120 498.252,277.727 496.743 C 277.334 495.235,276.254 492.482,275.326 490.625 C 272.359 484.687,271.913 482.662,271.796 474.600 C 271.601 461.143,267.982 458.592,248.528 458.201 C 241.414 458.058,238.728 457.816,236.778 457.141 C 234.946 456.507,232.661 456.264,228.479 456.258 C 221.949 456.249,221.268 455.989,218.373 452.397 C 212.666 445.319,214.445 437.871,225.212 423.765 C 226.196 422.477,227.001 421.159,227.002 420.837 C 227.003 420.514,227.689 419.238,228.525 418.000 C 232.884 411.550,232.469 407.817,227.021 404.465 C 225.730 403.671,223.179 401.273,221.350 399.136 C 214.258 390.844,212.849 389.551,207.333 386.263 C 203.895 384.215,200.336 382.553,197.591 381.716 C 182.646 377.157,178.512 371.013,181.800 358.250 C 182.509 355.500,183.408 351.816,183.799 350.063 C 184.272 347.945,186.021 344.058,189.016 338.469 C 193.746 329.646,194.734 327.349,195.567 323.250 C 196.241 319.934,196.592 295.616,195.972 295.233 C 195.712 295.072,195.487 295.348,195.470 295.845 C 195.454 296.343,195.254 302.600,195.025 309.750 C 194.526 325.371,194.405 325.856,188.267 336.876 C 183.621 345.217,183.401 345.802,180.782 356.750 C 177.062 372.301,180.639 378.120,197.490 383.932 C 206.975 387.203,212.578 391.201,219.903 399.924 C 222.975 403.583,226.259 406.512,229.283 408.289 C 231.583 409.640,228.916 416.031,221.963 425.834 C 212.212 439.582,211.297 445.893,217.845 454.235 C 221.018 458.278,223.207 459.164,229.766 459.059 C 233.521 458.998,235.648 459.227,238.036 459.948 C 240.599 460.723,242.740 460.918,248.607 460.910 C 267.565 460.887,270.160 462.623,270.650 475.662 C 270.971 484.180,271.861 487.770,274.980 493.124 C 275.501 494.018,276.300 496.212,276.756 498.000 C 277.211 499.788,278.541 503.050,279.710 505.250 C 280.879 507.450,282.315 510.150,282.901 511.250 C 283.487 512.350,284.971 515.317,286.200 517.844 C 287.429 520.371,289.687 524.082,291.217 526.090 C 294.485 530.379,294.524 530.594,292.298 531.970 C 282.418 538.077,282.481 549.522,292.533 574.423 C 298.415 588.996,299.042 595.484,294.832 598.242 C 292.671 599.658,282.686 600.566,264.500 600.999 C 241.313 601.552,236.513 602.822,227.333 610.836 C 219.502 617.673,219.847 617.530,214.261 616.235 C 210.582 615.381,204.337 615.168,199.685 615.737 C 197.324 616.025,195.601 615.874,192.185 615.078 C 189.746 614.510,185.350 613.804,182.416 613.509 C 175.361 612.802,169.923 610.891,165.602 607.601 C 163.148 605.733,160.352 599.459,158.029 590.611 C 156.102 583.271,153.611 575.038,149.447 562.250 C 144.450 546.902,135.757 546.002,119.000 559.100 C 116.112 561.357,109.642 566.192,104.620 569.845 C 99.599 573.498,93.749 577.862,91.620 579.542 C 86.253 583.780,84.452 584.744,79.000 586.300 C 72.965 588.022,71.073 588.837,66.491 591.688 C 60.945 595.140,58.285 594.248,52.054 586.848 C 46.436 580.177,45.692 574.102,50.019 570.249 C 52.351 568.172,60.024 558.363,62.701 554.036 C 64.233 551.559,67.625 546.576,70.239 542.963 C 77.498 532.929,84.484 520.767,84.495 518.142 C 84.501 516.707,82.280 514.208,77.775 510.585 C 74.107 507.634,72.358 506.911,65.500 505.510 C 60.725 504.534,50.930 499.119,49.817 496.840 C 48.798 494.754,49.251 490.398,50.798 487.406 C 51.271 486.492,51.500 484.320,51.500 480.749 C 51.500 477.643,51.838 473.960,52.316 471.858 C 52.897 469.303,53.052 467.024,52.854 463.955 C 52.614 460.263,52.713 459.415,53.537 458.059 C 54.950 455.736,54.752 454.285,52.750 452.283 C 50.411 449.944,50.376 447.783,52.625 444.651 C 53.995 442.744,54.257 441.928,54.294 439.455 C 54.337 436.628,54.423 436.442,56.669 434.351 C 60.360 430.913,59.436 429.004,52.864 426.491 C 36.938 420.400,31.393 405.243,42.241 397.453 C 44.706 395.682,47.036 392.324,48.707 388.133 C 49.508 386.122,50.445 384.960,52.750 383.116 C 54.400 381.795,58.000 377.950,60.750 374.571 C 66.314 367.734,67.510 366.880,79.750 361.010 C 94.291 354.037,94.805 345.166,81.000 339.446 C 75.843 337.309,71.906 334.850,68.059 331.364 C 63.957 327.646,55.718 322.737,52.380 322.021 C 42.968 320.002,37.541 311.545,43.139 307.620 C 44.025 306.999,45.425 305.603,46.250 304.519 C 47.075 303.435,48.836 301.311,50.164 299.799 C 51.884 297.841,53.223 295.498,54.820 291.650 C 58.363 283.116,58.904 281.324,59.275 276.904 C 59.720 271.602,60.360 270.095,63.299 267.422 C 70.303 261.056,70.265 260.200,62.737 254.542 C 52.356 246.739,50.689 241.939,56.338 236.111 C 58.324 234.063,58.813 232.056,57.803 230.103 C 56.633 227.841,48.613 219.888,45.192 217.600 C 34.659 210.553,35.805 202.121,48.464 193.524 C 52.336 190.895,53.400 190.574,60.250 189.969 C 65.854 189.474,67.289 189.335,72.972 188.738 C 74.744 188.552,79.131 187.533,82.722 186.474 C 86.312 185.415,92.595 183.750,96.682 182.773 C 111.274 179.285,118.132 173.347,128.462 155.250 C 132.728 147.778,134.890 136.195,134.403 123.421 L 134.218 118.593 135.984 118.083 C 139.758 116.992,150.649 116.326,154.749 116.936 C 164.324 118.360,170.489 125.847,173.329 139.500 C 175.735 151.070,178.016 153.500,186.470 153.500 C 193.135 153.500,198.288 151.729,208.274 146.005 C 222.502 137.851,228.661 136.296,237.011 138.753 C 245.071 141.125,248.897 140.002,255.773 133.250 C 261.071 128.048,267.000 119.025,267.000 116.164 C 267.000 114.879,266.291 115.910,265.274 118.671 C 263.080 124.629,254.884 134.001,249.619 136.574 C 246.491 138.103,242.467 138.071,237.500 136.478 C 229.692 133.973,223.504 135.564,208.464 143.944 C 197.890 149.835,195.237 150.750,188.728 150.750 C 181.219 150.750,179.437 149.084,177.495 140.250 C 174.751 127.773,168.104 117.988,160.727 115.566 C 155.373 113.809,138.373 114.459,134.372 116.574 C 133.809 116.872,132.787 116.827,131.523 116.448 C 126.627 114.981,120.520 121.032,114.191 133.624 C 109.876 142.207,108.227 143.550,97.810 146.960 C 79.788 152.860,70.292 150.911,55.250 138.224 C 50.259 134.014,44.638 130.453,36.750 126.505 L 29.250 122.750 25.676 116.335 C 19.958 106.074,18.846 100.044,21.666 94.596 C 22.654 92.687,23.921 89.466,24.482 87.438 C 25.043 85.410,25.952 83.131,26.501 82.375 C 27.582 80.887,28.132 80.071,31.633 74.750 C 33.748 71.538,34.348 70.364,36.676 64.893 C 37.170 63.733,38.270 62.523,39.608 61.668 C 40.786 60.916,42.697 59.550,43.855 58.633 C 45.013 57.716,46.809 56.611,47.847 56.177 C 48.884 55.744,50.293 54.948,50.978 54.410 C 52.805 52.973,54.658 53.527,60.873 57.368 C 69.552 62.733,69.497 62.713,75.487 62.733 C 80.935 62.751,86.781 60.688,90.250 57.523 C 90.800 57.021,92.825 55.444,94.750 54.017 C 97.996 51.611,99.880 49.489,107.149 40.051 C 109.507 36.990,114.362 33.987,116.922 34.006 C 118.405 34.017,125.336 37.304,130.854 40.614 C 138.610 45.267,139.148 45.500,142.145 45.500 C 144.139 45.500,145.621 45.890,147.839 46.998 C 154.067 50.111,157.504 49.166,162.390 43.000 C 170.232 33.104,175.234 30.655,186.731 31.080 C 191.742 31.266,191.961 31.325,197.050 33.869 C 199.910 35.299,203.713 37.007,205.500 37.665 C 207.287 38.323,210.338 39.661,212.280 40.639 C 214.221 41.617,217.063 42.781,218.596 43.227 C 220.128 43.672,222.589 44.911,224.066 45.980 C 229.399 49.843,232.031 51.057,238.932 52.842 C 249.283 55.519,251.399 55.247,257.526 50.451 C 258.245 49.889,260.128 49.265,261.835 49.023 C 266.201 48.406,267.644 47.474,269.789 43.884 C 274.155 36.576,275.341 35.726,278.386 37.722 C 281.000 39.437,291.198 42.977,294.535 43.330 C 299.569 43.861,305.647 41.151,311.407 35.806 C 319.412 28.377,324.961 29.486,336.000 40.719 C 341.402 46.216,344.956 48.265,353.750 50.948 C 356.500 51.787,361.063 53.174,363.889 54.030 L 369.028 55.586 367.443 57.418 C 366.571 58.426,364.679 60.375,363.239 61.750 C 361.247 63.652,360.535 64.729,360.265 66.250 C 360.040 67.520,358.943 69.528,357.259 71.750 C 353.102 77.239,353.134 77.834,357.867 83.000 C 364.584 90.331,365.563 102.638,360.150 111.693 C 359.145 113.374,357.708 115.763,356.956 117.000 C 356.205 118.237,355.266 120.037,354.870 121.000 C 354.473 121.963,353.203 124.294,352.046 126.180 C 349.803 129.839,349.573 131.155,351.657 128.408 C 353.136 126.458,359.049 116.680,361.623 111.928 C 367.037 101.934,365.669 88.484,358.504 81.254 C 354.841 77.559,354.835 77.376,358.196 73.026 C 359.917 70.799,361.104 68.672,361.480 67.144 C 361.956 65.211,362.496 64.434,364.282 63.111 C 365.500 62.209,366.889 60.859,367.370 60.111 C 367.851 59.362,368.752 58.340,369.372 57.839 C 372.393 55.398,370.963 54.080,362.472 51.479 C 344.480 45.966,343.278 45.370,336.250 38.493 C 324.165 26.666,317.358 25.386,308.515 33.276 C 298.540 42.176,291.120 42.580,277.689 34.954 C 273.278 32.449,272.257 32.971,268.171 39.818 C 265.014 45.108,264.035 45.983,260.894 46.321 C 256.006 46.847,255.433 47.070,252.750 49.500 C 248.731 53.140,247.034 53.212,237.006 50.168 C 231.742 48.570,228.859 47.136,224.421 43.908 C 222.188 42.284,219.959 41.137,218.109 40.661 C 216.537 40.257,213.675 39.074,211.750 38.033 C 209.825 36.991,207.012 35.746,205.500 35.266 C 203.988 34.785,200.680 33.300,198.151 31.966 C 190.959 28.174,188.206 27.672,179.000 28.480 " stroke="none" fill="#000000" fill-rule="evenodd"></path></g></svg>

