<svg id="svg" xmlns="http://www.w3.org/2000/svg" xmlns:xlink="http://www.w3.org/1999/xlink" width="2400" viewBox="0, 0, 400,640"><g id="svgg"><path id="path0" d="M105.128 0.787 C 105.886 1.199,108.543 2.312,111.033 3.262 C 113.523 4.213,117.178 5.701,119.155 6.571 C 121.132 7.440,125.459 9.102,128.771 10.264 C 135.712 12.700,138.117 13.857,144.252 17.709 C 146.694 19.242,150.842 21.320,153.471 22.327 C 162.860 25.922,168.712 31.933,169.755 39.054 C 170.371 43.260,167.906 46.463,160.900 50.561 C 152.166 55.669,142.930 65.456,138.432 74.367 C 133.072 84.988,133.357 87.891,140.478 95.202 C 150.773 105.772,151.474 110.357,143.639 115.870 C 137.340 120.303,135.038 122.862,134.530 126.000 C 134.285 127.513,133.391 130.213,132.543 132.000 L 131.001 135.250 131.000 144.696 L 131.000 154.143 133.375 156.499 C 136.194 159.296,139.096 160.491,148.000 162.518 C 161.376 165.564,164.228 167.604,168.250 177.000 C 171.044 183.527,174.493 187.911,180.926 193.109 C 183.029 194.809,186.851 198.191,189.419 200.624 C 194.920 205.836,197.851 207.846,203.163 210.048 C 208.785 212.379,222.729 224.981,225.233 229.992 C 229.526 238.588,229.462 240.349,224.497 250.189 C 220.807 257.501,219.444 259.394,216.120 261.824 C 210.053 266.259,209.066 267.171,207.787 269.520 C 207.006 270.956,205.591 272.587,204.503 273.307 C 201.709 275.156,201.224 276.702,202.271 280.431 C 203.461 284.672,203.279 284.931,199.537 284.312 C 197.215 283.928,195.721 283.972,193.362 284.493 C 191.499 284.905,186.840 285.211,181.750 285.256 C 171.760 285.344,172.116 285.250,160.500 290.843 C 155.688 293.161,150.287 295.471,148.500 295.977 C 143.507 297.391,142.478 297.883,139.300 300.373 C 136.796 302.335,135.707 302.820,132.088 303.590 C 125.593 304.970,119.909 309.779,116.260 316.981 C 115.548 318.385,114.227 320.707,113.324 322.142 C 110.598 326.471,107.508 336.426,107.503 340.898 C 107.500 343.881,108.990 345.996,111.102 346.005 C 118.298 346.036,133.111 361.579,134.552 370.612 C 134.828 372.338,135.523 375.738,136.098 378.168 C 137.397 383.657,136.890 388.750,134.584 393.361 C 133.790 394.950,132.185 398.441,131.019 401.118 C 128.641 406.573,127.517 407.800,122.212 410.726 C 115.783 414.273,115.030 415.521,116.269 420.579 C 117.592 425.977,119.937 428.704,125.876 431.750 C 133.505 435.663,135.395 440.907,131.313 446.840 C 130.385 448.189,129.116 450.295,128.492 451.521 C 127.868 452.747,126.466 454.762,125.377 456.000 C 119.320 462.880,119.327 469.425,125.398 473.602 C 126.675 474.480,129.414 476.685,131.485 478.502 C 139.611 485.630,150.145 490.042,159.500 490.235 C 166.906 490.387,171.064 492.616,175.686 498.913 C 176.648 500.224,177.957 501.546,178.593 501.851 C 179.229 502.155,181.922 503.433,184.577 504.690 C 188.940 506.756,189.727 507.351,192.747 510.863 C 198.455 517.502,198.991 519.429,196.487 524.305 C 195.655 525.925,194.086 529.388,193.000 532.000 C 191.914 534.612,189.985 538.772,188.712 541.244 C 184.954 548.544,185.841 552.714,193.061 561.686 C 197.812 567.590,200.177 568.574,204.746 566.553 C 206.056 565.974,207.990 565.500,209.045 565.500 C 210.100 565.500,212.048 565.072,213.375 564.549 C 215.078 563.878,216.486 563.678,218.167 563.867 C 221.435 564.235,226.468 562.793,229.666 560.571 C 232.527 558.583,232.143 558.622,242.559 559.263 C 250.167 559.731,251.144 559.396,254.696 555.098 C 256.217 553.257,257.752 551.451,258.106 551.086 C 266.380 542.550,276.539 548.137,277.948 562.000 C 278.214 564.612,279.003 568.663,279.702 571.000 C 280.401 573.337,281.329 576.567,281.765 578.177 C 283.026 582.830,284.254 583.722,288.663 583.186 C 297.998 582.052,311.317 583.080,317.000 585.374 C 319.063 586.206,321.538 587.124,322.500 587.413 C 325.624 588.351,332.179 591.209,335.167 592.936 C 337.387 594.219,338.864 594.685,341.342 594.883 L 344.599 595.145 347.674 591.855 C 352.485 586.709,357.777 584.927,370.250 584.254 C 373.550 584.076,377.262 583.704,378.500 583.428 C 379.738 583.152,382.743 582.717,385.178 582.462 C 387.613 582.206,390.831 581.641,392.330 581.205 C 394.184 580.666,395.843 580.522,397.527 580.754 L 400.000 581.094 400.000 579.547 L 400.000 578.000 395.563 578.000 C 392.897 578.000,390.277 578.299,389.000 578.750 C 387.831 579.162,385.914 579.500,384.741 579.500 C 383.567 579.500,380.952 579.817,378.928 580.205 C 376.905 580.593,372.100 581.281,368.250 581.736 C 353.355 583.493,348.375 584.985,345.262 588.622 C 344.293 589.754,343.500 590.857,343.500 591.072 C 343.500 593.153,338.298 592.462,333.486 589.742 C 330.420 588.009,328.703 587.291,321.500 584.727 C 319.712 584.091,316.800 582.966,315.028 582.226 C 309.599 579.961,294.046 578.990,287.675 580.518 C 284.138 581.367,284.146 581.376,281.501 573.000 C 279.835 567.724,279.291 565.104,279.009 561.000 C 277.845 544.042,262.260 538.731,252.247 551.880 C 248.559 556.722,246.771 557.146,233.985 556.206 L 230.220 555.929 226.985 558.138 C 222.789 561.004,220.725 561.663,217.281 561.232 C 215.393 560.996,213.733 561.130,211.900 561.666 C 210.443 562.092,208.084 562.554,206.659 562.692 C 205.234 562.831,203.209 563.359,202.159 563.865 C 199.121 565.329,197.921 564.871,194.237 560.843 C 187.040 552.971,186.024 548.253,190.071 541.500 C 190.812 540.263,192.316 537.000,193.412 534.250 C 194.509 531.500,196.214 527.569,197.203 525.514 C 200.410 518.848,199.528 516.038,191.783 508.229 C 187.198 503.606,186.391 503.013,182.721 501.560 C 179.255 500.188,178.317 499.539,176.009 496.918 C 170.367 490.507,163.484 487.017,157.854 487.711 C 150.558 488.610,139.147 483.294,128.107 473.851 C 120.508 467.352,120.155 464.363,126.186 457.572 C 127.459 456.139,129.088 453.793,129.806 452.358 C 130.524 450.924,131.612 449.075,132.223 448.250 C 137.209 441.518,134.766 434.260,125.987 429.719 C 119.646 426.440,117.519 423.450,117.311 417.522 C 117.253 415.871,117.417 415.702,121.000 413.725 C 126.656 410.603,129.366 407.938,131.392 403.506 C 132.336 401.440,133.967 397.926,135.016 395.696 C 138.172 388.988,138.676 384.187,137.005 376.750 C 136.449 374.275,135.764 371.001,135.482 369.474 C 133.902 360.906,119.188 345.067,111.531 343.690 C 108.812 343.201,108.545 342.794,108.844 339.596 C 109.297 334.744,111.889 327.126,114.746 322.250 C 116.196 319.775,117.727 317.075,118.149 316.250 C 118.570 315.425,120.565 313.044,122.583 310.959 C 126.445 306.966,127.441 306.473,133.138 305.742 C 134.948 305.509,136.281 304.855,138.655 303.036 C 142.537 300.061,144.075 299.259,148.917 297.686 C 151.025 297.001,154.100 295.762,155.750 294.932 C 157.400 294.103,161.563 292.158,165.000 290.610 L 171.250 287.795 181.250 287.443 C 186.750 287.249,192.205 286.928,193.373 286.729 C 194.587 286.523,196.796 286.625,198.536 286.967 C 203.457 287.935,205.007 286.200,203.689 281.197 C 202.706 277.465,202.806 277.108,205.625 274.293 C 207.069 272.852,208.934 270.677,209.769 269.461 C 210.605 268.245,212.742 266.168,214.519 264.845 C 220.212 260.606,221.254 259.281,225.344 251.078 C 230.114 241.511,230.368 239.869,228.060 233.568 C 225.917 227.719,224.503 225.527,220.891 222.459 C 219.163 220.991,215.599 217.730,212.971 215.212 C 207.631 210.097,205.320 208.478,201.122 206.914 C 197.240 205.468,195.253 204.123,192.000 200.742 C 190.488 199.170,186.603 195.766,183.367 193.178 C 175.813 187.133,173.078 183.769,168.750 175.194 C 163.989 165.763,161.181 163.773,149.081 161.258 C 134.289 158.183,132.499 156.409,132.202 144.522 L 131.989 135.997 133.804 132.393 C 135.104 129.811,135.629 128.104,135.655 126.373 C 135.698 123.549,138.113 120.856,143.154 118.011 C 152.565 112.700,152.269 103.733,142.392 94.893 C 136.509 89.628,135.684 88.158,136.370 84.155 C 138.089 74.116,150.183 58.507,160.647 52.821 C 171.221 47.074,173.322 42.164,169.169 32.908 C 166.876 27.799,160.364 22.536,153.513 20.254 C 151.396 19.549,147.546 17.737,144.957 16.227 C 137.130 11.661,133.036 9.721,126.750 7.594 C 123.450 6.478,117.741 4.313,114.062 2.782 C 109.996 1.090,106.664 0.008,105.562 0.020 L 103.750 0.040 105.128 0.787 M397.500 44.563 C 393.423 47.364,378.963 52.742,371.500 54.234 C 369.163 54.702,364.694 55.740,361.571 56.542 C 356.527 57.837,355.045 58.000,348.321 58.004 C 344.157 58.006,339.288 58.266,337.500 58.582 C 331.793 59.590,321.594 59.244,314.031 57.786 C 305.782 56.195,305.191 56.284,298.316 60.175 C 292.012 63.742,289.173 66.083,286.123 70.226 C 282.128 75.653,279.257 76.052,267.595 72.801 C 259.660 70.589,256.998 70.230,254.000 70.968 C 252.762 71.273,248.300 71.733,244.082 71.991 C 223.023 73.277,212.346 76.734,203.875 85.009 C 197.954 90.793,197.878 91.154,201.375 96.823 L 203.750 100.674 203.726 105.962 C 203.703 110.902,203.541 111.743,201.258 118.750 C 198.490 127.244,198.096 129.886,199.167 132.752 C 208.474 157.656,214.770 164.164,233.750 168.503 C 250.095 172.239,260.113 177.523,263.475 184.182 L 265.200 187.599 264.350 189.991 C 262.740 194.524,263.811 196.970,271.427 206.154 C 279.167 215.487,279.429 216.128,278.187 222.677 C 277.556 226.004,277.515 227.571,277.964 231.372 C 278.602 236.788,278.362 237.647,274.890 242.363 C 273.655 244.041,272.385 246.476,272.044 247.821 C 271.706 249.157,270.318 253.094,268.960 256.570 C 267.602 260.045,265.835 265.445,265.033 268.570 C 264.232 271.694,262.966 275.825,262.220 277.750 C 261.200 280.383,260.706 282.955,260.226 288.130 C 259.306 298.058,258.792 298.762,246.856 306.431 C 231.686 316.179,224.467 318.606,205.000 320.502 C 202.387 320.757,198.353 321.536,196.033 322.233 C 193.714 322.931,189.889 323.856,187.533 324.288 C 175.851 326.430,171.828 328.878,164.746 338.153 C 160.343 343.920,163.725 349.436,178.452 360.498 C 184.057 364.708,189.976 370.722,191.434 373.688 C 193.929 378.761,192.850 380.658,177.847 397.589 C 170.778 405.566,170.893 406.875,178.756 407.969 C 191.763 409.778,192.520 419.942,181.378 443.169 C 175.221 456.004,175.422 461.383,182.148 463.733 C 184.604 464.592,185.234 464.638,187.106 464.097 C 190.644 463.074,200.417 461.000,201.701 461.000 C 203.284 461.000,221.751 484.082,224.503 489.500 C 226.428 493.291,227.367 494.027,234.404 497.269 C 244.811 502.061,249.565 500.669,249.828 492.750 C 249.874 491.375,249.931 490.094,249.956 489.904 C 249.980 489.714,251.392 488.817,253.093 487.910 C 255.262 486.754,256.849 485.409,258.402 483.408 C 259.621 481.839,261.459 479.998,262.488 479.317 C 263.516 478.637,264.896 477.363,265.554 476.487 C 268.785 472.184,273.185 468.043,275.664 466.973 C 280.131 465.042,289.394 467.411,291.225 470.953 C 292.238 472.911,294.500 484.268,294.500 487.393 C 294.500 490.627,295.612 494.010,299.684 503.165 C 303.871 512.579,305.258 517.001,305.986 523.250 C 307.792 538.762,313.122 545.286,321.356 542.063 C 322.746 541.519,325.847 540.979,328.750 540.775 C 336.710 540.216,340.187 539.612,346.632 537.669 L 352.674 535.848 360.212 537.662 C 364.358 538.659,369.325 539.706,371.250 539.988 C 373.175 540.270,377.000 540.854,379.750 541.286 C 382.500 541.718,386.100 542.276,387.750 542.526 C 394.805 543.594,400.000 542.490,400.000 539.924 C 400.000 538.178,399.851 538.172,394.250 539.679 C 391.027 540.546,388.535 540.405,379.250 538.826 C 376.775 538.405,371.600 537.578,367.750 536.989 C 363.900 536.399,359.263 535.485,357.446 534.958 C 352.820 533.616,348.506 533.716,343.963 535.270 C 338.345 537.191,336.364 537.544,328.750 537.985 C 323.515 538.289,321.082 538.657,319.099 539.448 C 312.785 541.967,309.063 537.178,307.058 523.957 C 305.907 516.370,304.655 512.397,299.560 500.164 C 296.342 492.437,295.936 491.087,295.509 486.664 C 294.426 475.444,292.265 468.614,289.153 466.575 C 280.078 460.625,270.021 463.297,263.006 473.521 C 261.960 475.045,260.237 476.894,259.177 477.630 C 258.117 478.365,256.350 480.112,255.250 481.511 C 253.821 483.329,252.363 484.480,250.141 485.545 C 246.328 487.373,245.501 488.477,245.498 491.736 C 245.494 497.918,243.115 498.901,235.696 495.785 C 228.064 492.579,227.135 491.930,225.773 488.850 C 225.134 487.406,222.506 483.679,219.931 480.567 C 217.356 477.455,212.642 471.386,209.455 467.079 C 202.286 457.394,202.666 457.588,194.149 459.280 C 190.836 459.939,187.519 460.708,186.780 460.989 C 183.795 462.123,179.291 461.204,178.699 459.339 C 177.468 455.462,178.353 451.921,183.034 441.985 C 194.041 418.622,192.251 407.644,177.126 405.737 C 173.321 405.258,173.288 405.336,181.356 395.728 C 191.831 383.253,191.897 383.163,192.812 380.262 C 194.434 375.116,192.178 371.001,183.379 363.052 C 180.283 360.254,176.101 356.474,174.085 354.650 C 172.069 352.826,169.533 350.691,168.449 349.906 C 163.233 346.127,163.040 342.249,167.806 336.947 C 169.633 334.914,171.459 332.749,171.863 332.138 C 173.079 330.298,177.379 328.604,184.250 327.257 C 187.825 326.556,192.662 325.439,195.000 324.774 C 197.338 324.110,200.488 323.424,202.000 323.252 C 222.651 320.891,233.381 317.084,249.388 306.439 C 259.150 299.947,260.387 298.186,261.098 289.765 C 261.449 285.611,262.047 282.770,263.522 278.250 C 264.600 274.950,265.849 270.450,266.297 268.250 C 266.746 266.050,268.194 261.550,269.516 258.250 C 270.837 254.950,272.285 250.974,272.733 249.415 C 273.181 247.855,274.224 245.605,275.051 244.415 C 279.676 237.753,279.249 239.111,279.255 231.033 C 279.257 227.027,279.455 222.159,279.693 220.215 C 280.270 215.511,279.456 213.736,273.698 207.161 C 271.248 204.363,268.151 200.267,266.817 198.059 L 264.390 194.046 265.195 191.684 C 267.163 185.908,262.930 177.432,256.681 174.635 C 248.213 170.845,241.962 168.721,232.190 166.315 C 216.451 162.439,209.569 155.783,202.299 137.401 C 199.389 130.044,199.387 128.945,202.256 119.702 C 206.442 106.221,206.307 101.561,201.527 94.500 C 199.426 91.396,199.475 91.246,204.125 86.653 C 212.726 78.155,222.033 75.095,243.000 73.872 C 257.257 73.040,259.801 73.160,266.757 74.994 C 278.373 78.057,282.797 77.582,285.874 72.940 C 288.599 68.831,291.741 66.018,297.237 62.770 C 303.984 58.783,305.091 58.586,313.086 59.949 C 321.377 61.363,328.848 61.755,333.500 61.019 C 335.563 60.693,341.863 60.236,347.500 60.003 C 357.479 59.592,358.008 59.515,367.500 57.109 C 382.517 53.303,400.000 45.980,400.000 43.496 C 400.000 42.831,400.060 42.806,397.500 44.563 " stroke="none" fill="#000000" fill-rule="evenodd"></path></g></svg>

