<svg id="svg" xmlns="http://www.w3.org/2000/svg" xmlns:xlink="http://www.w3.org/1999/xlink" width="150" viewBox="0, 0, 400, 350"><g id="svgg"><path id="path0" d="M191.602 40.238 C 188.401 44.560,183.194 50.371,180.031 53.154 C 169.348 62.551,153.200 84.597,142.722 104.090 C 134.397 119.578,126.180 132.609,121.358 137.973 C 109.914 150.701,117.165 152.916,162.451 150.528 C 171.841 150.033,184.994 149.383,191.680 149.084 L 203.836 148.540 203.716 165.460 C 203.646 175.291,204.054 184.329,204.688 187.031 C 205.288 189.589,205.630 191.830,205.449 192.012 C 203.081 194.379,135.398 193.014,104.762 189.980 C 97.167 189.228,88.167 188.372,84.762 188.077 C 78.181 187.506,65.707 185.108,62.143 183.728 C 51.384 179.561,78.161 210.815,97.795 225.339 C 144.241 259.699,173.913 270.611,221.429 270.807 C 254.890 270.945,282.471 260.429,312.131 236.227 C 321.149 228.868,346.825 191.021,351.667 177.950 C 353.629 172.654,345.677 172.683,328.289 178.035 C 307.914 184.308,245.494 191.429,210.889 191.429 C 205.759 191.429,203.624 178.819,205.199 157.813 L 205.892 148.571 261.517 148.571 C 315.873 148.571,317.186 148.528,319.048 146.667 C 325.498 140.216,318.818 132.677,281.905 104.748 C 272.902 97.936,260.823 87.173,242.861 69.956 C 236.278 63.646,227.048 55.770,222.351 52.452 C 217.653 49.135,212.023 44.976,209.840 43.210 C 207.656 41.445,205.161 40.000,204.295 40.000 C 203.192 40.000,202.809 39.327,203.015 37.751 C 203.365 35.083,201.381 32.381,199.071 32.381 C 198.113 32.381,194.989 35.668,191.602 40.238 M219.654 54.291 C 225.344 58.143,233.429 64.587,237.619 68.612 C 253.292 83.665,271.297 99.532,281.905 107.640 C 305.363 125.570,319.025 138.402,319.043 142.523 C 319.050 144.080,303.594 144.660,250.760 145.084 L 205.806 145.445 205.998 114.865 C 206.180 86.030,206.068 83.784,204.048 75.486 C 202.437 68.872,201.905 63.865,201.905 55.326 C 201.905 40.900,202.072 40.463,206.122 44.283 C 207.874 45.935,213.963 50.439,219.654 54.291 M202.771 80.952 C 204.825 90.269,205.279 143.610,203.321 145.568 C 201.980 146.909,133.576 147.837,129.294 146.572 L 124.778 145.238 128.126 141.028 C 129.967 138.713,134.317 131.641,137.793 125.314 C 156.960 90.424,169.933 72.125,188.019 54.474 C 194.085 48.554,199.129 43.197,199.228 42.570 C 199.328 41.942,199.670 48.071,199.988 56.190 C 200.382 66.220,201.274 74.158,202.771 80.952 M342.309 181.190 C 339.093 191.368,313.139 228.410,304.548 235.082 C 271.896 260.438,249.400 268.351,212.857 267.333 C 169.077 266.114,142.477 255.644,97.865 222.073 C 82.240 210.314,61.488 188.168,67.645 189.824 C 73.459 191.387,94.543 193.267,128.571 195.255 C 148.527 196.421,189.131 196.408,205.238 195.229 C 212.048 194.731,225.976 193.880,236.190 193.339 C 281.505 190.936,325.380 185.474,338.571 180.592 C 340.667 179.816,342.517 179.152,342.683 179.115 C 342.849 179.078,342.681 180.012,342.309 181.190 " stroke="none" fill="#000000" fill-rule="evenodd"></path></g></svg>
